<?xml version="1.0" encoding="UTF-8" standalone="no"?>
<!-- Created with Inkscape (http://www.inkscape.org/) -->

<svg
   width="200mm"
   height="30mm"
   viewBox="0 0 200 30"
   version="1.1"
   id="svg1"
   inkscape:export-filename="C:\Users\charl\bottomswoop.svg"
   inkscape:export-xdpi="96"
   inkscape:export-ydpi="96"
   inkscape:version="1.4.2 (f4327f4, 2025-05-13)"
   sodipodi:docname="bottomswoop.svg"
   xml:space="preserve"
   xmlns:inkscape="http://www.inkscape.org/namespaces/inkscape"
   xmlns:sodipodi="http://sodipodi.sourceforge.net/DTD/sodipodi-0.dtd"
   xmlns="http://www.w3.org/2000/svg"
   xmlns:svg="http://www.w3.org/2000/svg"><sodipodi:namedview
     id="namedview1"
     pagecolor="#ffffff"
     bordercolor="#111111"
     borderopacity="1"
     inkscape:showpageshadow="0"
     inkscape:pageopacity="0"
     inkscape:pagecheckerboard="1"
     inkscape:deskcolor="#d1d1d1"
     inkscape:document-units="mm"
     showguides="true"
     inkscape:zoom="0.71891835"
     inkscape:cx="521.61695"
     inkscape:cy="328.96643"
     inkscape:window-width="1920"
     inkscape:window-height="1009"
     inkscape:window-x="-8"
     inkscape:window-y="-8"
     inkscape:window-maximized="1"
     inkscape:current-layer="layer1"><inkscape:page
       x="0"
       y="0"
       width="200"
       height="30"
       id="page2"
       margin="0"
       bleed="0" /></sodipodi:namedview><defs
     id="defs1"><inkscape:path-effect
       effect="mirror_symmetry"
       start_point="150,104.88869"
       end_point="150,150.52438"
       center_point="150,127.70654"
       id="path-effect3"
       is_visible="true"
       lpeversion="1.2"
       lpesatellites=""
       mode="free"
       discard_orig_path="false"
       fuse_paths="true"
       oposite_fuse="false"
       split_items="false"
       split_open="false"
       link_styles="false" /></defs><g
     inkscape:label="Layer 1"
     inkscape:groupmode="layer"
     id="layer1"><path
       id="rect1"
       style="fill:#545454;fill-opacity:1;stroke-width:0.313135"
       d="m 150,104.79688 c -1.64725,0.0348 -3.36366,0.0918 -5.12695,0.0918 H 87.621094 c -48.563718,0 -51.713052,2.01829 -53.722657,14.1836 L 29.240234,147.27148 150,150.10547 l 120.75977,-2.83399 -4.65821,-28.19921 c -2.0096,-12.16531 -5.15894,-14.1836 -53.72265,-14.1836 h -57.25196 c -1.76329,0 -3.4797,-0.057 -5.12695,-0.0918 z"
       inkscape:path-effect="#path-effect3"
       inkscape:original-d="m 87.62122,104.88869 c -48.563718,0 -51.71259,2.01763 -53.722194,14.18294 l -4.658487,28.20055 138.581261,3.2522 v -25.01626 c 0,-23.5683 -10.23491,-20.61943 -22.94796,-20.61943 z"
       transform="matrix(0.68267085,0,0,1.0402424,-2.2155835,-105.05743)"
       sodipodi:nodetypes="ssccsss" /><path
       d="M 29.227785,26.492981 V 9.9070772 h 1.137318 L 37.02316,20.735303 H 36.525581 L 43.278413,9.9070772 h 1.018848 V 26.492981 h -1.184706 v -8.316646 q 0,-2.132472 0.03791,-3.838451 0.03317,-1.70598 0.175345,-3.388264 l 0.35541,0.450188 -6.468501,10.235872 h -0.99515 L 29.962313,11.541973 30.199256,10.94962 q 0.142157,1.587508 0.175345,3.255574 0.03791,1.672807 0.03791,3.971141 v 8.316646 z m 24.855159,0 6.302643,-16.5859038 h 1.611201 L 68.228346,26.492981 H 66.901474 L 62.612838,15.025012 Q 62.328507,14.290494 62.129476,13.721835 61.925706,13.153175 61.736153,12.631904 61.5466,12.110633 61.357047,11.527756 61.167494,10.94962 60.930552,10.215102 h 0.4028 q -0.236942,0.781905 -0.435973,1.37426 -0.203769,0.592352 -0.402801,1.123102 -0.203769,0.535489 -0.417015,1.113625 -0.213249,0.582875 -0.497578,1.341087 L 55.31504,26.492981 h -1.232096 m 2.582661,-4.999466 0.450189,-1.184707 h 8.127094 l 0.450186,1.184707 z m 21.348424,4.999466 V 9.9070772 h 1.184707 V 25.308273 h 8.127097 v 1.184708 z m 19.334419,0 V 9.9070772 h 1.184709 V 25.308273 h 8.127113 v 1.184708 z m 17.367802,0 6.30265,-16.5859038 h 1.61122 l 6.23157,16.5859038 h -1.32688 l -4.28866,-11.467969 q -0.28434,-0.734518 -0.48336,-1.303177 -0.20376,-0.56866 -0.3933,-1.089931 -0.18957,-0.521271 -0.37911,-1.104148 -0.18954,-0.578136 -0.42651,-1.312654 h 0.4028 q -0.23693,0.781905 -0.43598,1.37426 -0.20376,0.592352 -0.40278,1.123102 -0.20377,0.535489 -0.41702,1.113625 -0.21325,0.582875 -0.49757,1.341087 l -4.26496,11.325805 h -1.23211 m 2.58267,-4.999466 0.4502,-1.184707 h 8.12709 l 0.4502,1.184707 z m 21.34844,4.999466 V 9.9070772 h 5.97094 q 1.46902,0 2.62056,0.6634358 1.1468,0.663436 1.81023,1.786539 0.66344,1.127841 0.66344,2.549491 0,1.421649 -0.62553,2.487884 -0.63026,1.066238 -1.72966,1.672807 -1.10415,0.601831 -2.50211,0.601831 h -5.02316 v 6.823916 h -1.18471 m 10.33065,0 -4.12278,-7.131939 0.99515,-0.616047 4.50188,7.747986 h -1.37425 m -9.14594,-8.008623 h 5.16532 q 1.01887,0 1.80076,-0.450188 0.7819,-0.450191 1.22261,-1.255791 0.43598,-0.805601 0.43598,-1.824449 0,-1.113625 -0.49758,-1.990307 -0.49757,-0.876684 -1.38375,-1.374261 -0.89088,-0.497577 -2.02818,-0.497577 h -4.71516 z m 20.30589,8.008623 V 9.9070772 h 6.042 q 1.6112,0 3.00915,0.6160488 1.39795,0.616047 2.45472,1.715454 1.05203,1.104148 1.65857,2.620573 0.60185,1.516426 0.60185,3.340875 0,1.800754 -0.60185,3.326659 -0.60654,1.530642 -1.65857,2.634791 -1.05677,1.099407 -2.45472,1.715454 -1.39795,0.616049 -3.00915,0.616049 h -6.042 m 1.1847,-0.781908 -0.33172,-0.4028 h 5.07055 q 1.35056,0 2.54949,-0.521272 1.19419,-0.521271 2.09456,-1.483253 0.90039,-0.957243 1.42165,-2.250945 0.52127,-1.288961 0.52127,-2.852775 0,-1.563812 -0.52127,-2.857514 -0.52126,-1.288959 -1.42165,-2.250944 -0.90037,-0.957242 -2.09456,-1.478515 -1.19893,-0.52127 -2.54949,-0.52127 h -5.14164 l 0.40281,-0.355413 z"
       id="path1"
       style="fill:#ffffff;stroke-width:0.473883" /></g></svg>
