<svg xmlns="http://www.w3.org/2000/svg" viewBox="0 15 305.29998779296875 35" data-asc="1" width="305.29998779296875" height="35"><defs/><g><g fill="#ffffff"><g transform="translate(0, 0)"><path d="M0 50L0 15L2.40 15L16.45 37.85L15.40 37.85L29.65 15L31.80 15L31.80 50L29.30 50L29.30 32.45Q29.30 27.95 29.38 24.35Q29.45 20.75 29.75 17.20L30.50 18.15L16.85 39.75L14.75 39.75L1.55 18.45L2.05 17.20Q2.35 20.55 2.42 24.07Q2.50 27.60 2.50 32.45L2.50 50L0 50ZM52.45 50L65.75 15L69.15 15L82.30 50L79.50 50L70.45 25.80Q69.85 24.25 69.43 23.05Q69 21.85 68.60 20.75Q68.20 19.65 67.80 18.42Q67.40 17.20 66.90 15.65L67.75 15.65Q67.25 17.30 66.83 18.55Q66.40 19.80 65.98 20.92Q65.55 22.05 65.10 23.27Q64.65 24.50 64.05 26.10L55.05 50L52.45 50M57.90 39.45L58.85 36.95L76 36.95L76.95 39.45L57.90 39.45ZM102.95 50L102.95 15L105.45 15L105.45 47.50L122.60 47.50L122.60 50L102.95 50ZM143.75 50L143.75 15L146.25 15L146.25 47.50L163.40 47.50L163.40 50L143.75 50ZM180.40 50L193.70 15L197.10 15L210.25 50L207.45 50L198.40 25.80Q197.80 24.25 197.38 23.05Q196.95 21.85 196.55 20.75Q196.15 19.65 195.75 18.42Q195.35 17.20 194.85 15.65L195.70 15.65Q195.20 17.30 194.78 18.55Q194.35 19.80 193.93 20.92Q193.50 22.05 193.05 23.27Q192.60 24.50 192.00 26.10L183.00 50L180.40 50M185.85 39.45L186.80 36.95L203.95 36.95L204.90 39.45L185.85 39.45ZM230.90 50L230.90 15L243.50 15Q246.60 15 249.03 16.40Q251.45 17.80 252.85 20.17Q254.25 22.55 254.25 25.55Q254.25 28.55 252.93 30.80Q251.60 33.05 249.28 34.33Q246.95 35.60 244.00 35.60L233.40 35.60L233.40 50L230.90 50M252.70 50L244.00 34.95L246.10 33.65L255.60 50L252.70 50M233.40 33.10L244.30 33.10Q246.45 33.10 248.10 32.15Q249.75 31.20 250.68 29.50Q251.60 27.80 251.60 25.65Q251.60 23.30 250.55 21.45Q249.50 19.60 247.63 18.55Q245.75 17.50 243.35 17.50L233.40 17.50L233.40 33.10ZM276.25 50L276.25 15L289 15Q292.40 15 295.35 16.30Q298.30 17.60 300.53 19.92Q302.75 22.25 304.03 25.45Q305.30 28.65 305.30 32.50Q305.30 36.30 304.03 39.52Q302.75 42.75 300.53 45.08Q298.30 47.40 295.35 48.70Q292.40 50 289 50L276.25 50M278.75 48.35L278.05 47.50L288.75 47.50Q291.60 47.50 294.13 46.40Q296.65 45.30 298.55 43.27Q300.45 41.25 301.55 38.52Q302.65 35.80 302.65 32.50Q302.65 29.20 301.55 26.47Q300.45 23.75 298.55 21.72Q296.65 19.70 294.13 18.60Q291.60 17.50 288.75 17.50L277.90 17.50L278.75 16.75L278.75 48.35Z"/></g></g></g></svg>